<mxfile host="app.diagrams.net" modified="2022-01-03T13:14:19.152Z" agent="5.0 (X11; Linux x86_64) AppleWebKit/537.36 (KHTML, like Gecko) Chrome/96.0.4664.110 Safari/537.36" etag="O_WAZzfxPQokKeTtnz69" version="16.1.0" type="github">
  <diagram id="l3H6z8XP6cuQ8sb2ZvN6" name="Page-1">
    <mxGraphModel dx="1590" dy="773" grid="1" gridSize="10" guides="1" tooltips="1" connect="1" arrows="1" fold="1" page="1" pageScale="1" pageWidth="1169" pageHeight="827" math="0" shadow="0">
      <root>
        <mxCell id="0" />
        <mxCell id="1" parent="0" />
        <mxCell id="rJQg1q4BybbTrZUk7zNA-12" value="" style="rounded=1;whiteSpace=wrap;html=1;" vertex="1" parent="1">
          <mxGeometry x="580" y="40" width="180" height="250" as="geometry" />
        </mxCell>
        <mxCell id="rJQg1q4BybbTrZUk7zNA-1" value="&lt;div style=&quot;text-align: justify&quot;&gt;&lt;span&gt;1、从tidb_server中获取数据，br从tikv中获取数据&lt;/span&gt;&lt;/div&gt;&lt;div style=&quot;text-align: justify&quot;&gt;&lt;span&gt;2、支持导出多种数据形式，包括SQL/CSV&lt;/span&gt;&lt;/div&gt;&lt;div style=&quot;text-align: justify&quot;&gt;&lt;span&gt;3、逻辑导出。可读方式&lt;/span&gt;&lt;/div&gt;&lt;div style=&quot;text-align: justify&quot;&gt;4、支持全新的表过滤和数据过滤，筛选数据更加方便&lt;/div&gt;&lt;div style=&quot;text-align: justify&quot;&gt;5、支持导出到Amazon S3云盘&lt;/div&gt;&lt;div style=&quot;text-align: justify&quot;&gt;6、针对TiDB进行优化，支持SQL导出限制？？调整GC时间？？并发性能？？&lt;/div&gt;" style="rounded=0;whiteSpace=wrap;html=1;" vertex="1" parent="1">
          <mxGeometry x="200" y="40" width="290" height="120" as="geometry" />
        </mxCell>
        <mxCell id="rJQg1q4BybbTrZUk7zNA-2" value="&lt;div style=&quot;text-align: justify&quot;&gt;适用场景&lt;/div&gt;&lt;div style=&quot;text-align: justify&quot;&gt;1、导出数据量过小，十几GB最佳&lt;/div&gt;&lt;div style=&quot;text-align: justify&quot;&gt;2、需要导出SQL语句或者CSV的场景。可以在异构数据库源或者系统中进行迁移&lt;/div&gt;&lt;div style=&quot;text-align: justify&quot;&gt;3、对于导出效率要求不高，由于需要读取数据和转换，所以比起物理导出效率低下&lt;/div&gt;" style="rounded=0;whiteSpace=wrap;html=1;" vertex="1" parent="1">
          <mxGeometry x="200" y="200" width="290" height="120" as="geometry" />
        </mxCell>
        <mxCell id="rJQg1q4BybbTrZUk7zNA-3" value="&lt;div style=&quot;text-align: justify&quot;&gt;不适用场景&lt;/div&gt;&lt;div style=&quot;text-align: justify&quot;&gt;1、需要直接导出TiDB数据库中的原始数据SST（键值对）&lt;/div&gt;&lt;div style=&quot;text-align: justify&quot;&gt;2、增量备份，目前只能全量导出，无法做到增量&lt;/div&gt;&lt;div style=&quot;text-align: justify&quot;&gt;3、数据量较大&lt;/div&gt;" style="rounded=0;whiteSpace=wrap;html=1;" vertex="1" parent="1">
          <mxGeometry x="200" y="360" width="290" height="120" as="geometry" />
        </mxCell>
        <mxCell id="rJQg1q4BybbTrZUk7zNA-4" value="&lt;div style=&quot;text-align: justify&quot;&gt;权限&lt;/div&gt;&lt;div style=&quot;text-align: justify&quot;&gt;SELECT&lt;/div&gt;&lt;div style=&quot;text-align: justify&quot;&gt;RELOAD&lt;/div&gt;&lt;div style=&quot;text-align: justify&quot;&gt;LOCK TABLES&lt;/div&gt;&lt;div style=&quot;text-align: justify&quot;&gt;REPLICATION CLIENT&lt;/div&gt;" style="rounded=0;whiteSpace=wrap;html=1;" vertex="1" parent="1">
          <mxGeometry x="200" y="520" width="290" height="120" as="geometry" />
        </mxCell>
        <mxCell id="rJQg1q4BybbTrZUk7zNA-5" value="&lt;div style=&quot;text-align: justify&quot;&gt;dumpling&lt;/div&gt;&lt;div style=&quot;text-align: justify&quot;&gt;-u root&lt;/div&gt;&lt;div style=&quot;text-align: justify&quot;&gt;-p &lt;span style=&quot;white-space: pre&quot;&gt;	&lt;/span&gt;&lt;span style=&quot;white-space: pre&quot;&gt;	&lt;/span&gt;&lt;span style=&quot;white-space: pre&quot;&gt;	&lt;/span&gt;&lt;span style=&quot;white-space: pre&quot;&gt;	&lt;/span&gt;密码&lt;/div&gt;&lt;div style=&quot;text-align: justify&quot;&gt;-P 4000&lt;/div&gt;&lt;div style=&quot;text-align: justify&quot;&gt;-h 127.0.0.1&lt;/div&gt;&lt;div style=&quot;text-align: justify&quot;&gt;--filetype sql&amp;nbsp;&lt;/div&gt;&lt;div style=&quot;text-align: justify&quot;&gt;--threads 32&lt;/div&gt;&lt;div style=&quot;text-align: justify&quot;&gt;-o /tmp/test&amp;nbsp; &lt;span style=&quot;white-space: pre&quot;&gt;	&lt;span style=&quot;white-space: pre&quot;&gt;	&lt;/span&gt;&lt;/span&gt;导出目录&lt;/div&gt;&lt;div style=&quot;text-align: justify&quot;&gt;-r 200000&lt;span style=&quot;white-space: pre&quot;&gt;	&lt;/span&gt;&lt;span style=&quot;white-space: pre&quot;&gt;	&lt;span style=&quot;white-space: pre&quot;&gt;	&lt;/span&gt;&lt;/span&gt;单个文件的最大行数，可以并发&lt;/div&gt;&lt;div style=&quot;text-align: justify&quot;&gt;-F 256MiB/GiB&lt;span style=&quot;white-space: pre&quot;&gt;	&lt;/span&gt;单个文件的最大大小&lt;/div&gt;&lt;div style=&quot;text-align: justify&quot;&gt;-t&lt;span style=&quot;white-space: pre&quot;&gt;	&lt;/span&gt;&lt;span style=&quot;white-space: pre&quot;&gt;	&lt;/span&gt;&lt;span style=&quot;white-space: pre&quot;&gt;	&lt;/span&gt;&lt;span style=&quot;white-space: pre&quot;&gt;	&lt;/span&gt;用于指定导出的线程数&lt;/div&gt;&lt;div style=&quot;text-align: justify&quot;&gt;&lt;br&gt;&lt;/div&gt;&lt;div style=&quot;text-align: justify&quot;&gt;--where &quot;id &amp;lt; 100&quot;&lt;span style=&quot;white-space: pre&quot;&gt;	&lt;/span&gt;数据筛选 仅限CSV文件&lt;/div&gt;&lt;div style=&quot;text-align: justify&quot;&gt;&lt;br&gt;&lt;/div&gt;&lt;div style=&quot;text-align: justify&quot;&gt;--filter&lt;span style=&quot;white-space: pre&quot;&gt;	&lt;/span&gt;&lt;span style=&quot;white-space: pre&quot;&gt;	&lt;/span&gt;&lt;span style=&quot;white-space: pre&quot;&gt;	&lt;/span&gt;筛选数据&lt;/div&gt;&lt;div style=&quot;text-align: justify&quot;&gt;--filter &quot;employees.*&quot;&lt;/div&gt;&lt;div style=&quot;text-align: justify&quot;&gt;--filter &quot;*.WorkOrder&quot;&lt;/div&gt;&lt;div style=&quot;text-align: justify&quot;&gt;&lt;br&gt;&lt;/div&gt;&lt;div style=&quot;text-align: justify&quot;&gt;-B xxxx&amp;nbsp; &lt;span style=&quot;white-space: pre&quot;&gt;	&lt;/span&gt;&lt;span style=&quot;white-space: pre&quot;&gt;	&lt;/span&gt;&lt;span style=&quot;white-space: pre&quot;&gt;	&lt;/span&gt;导出xxxx数据库&lt;/div&gt;&lt;div style=&quot;text-align: justify&quot;&gt;-T xxxx.yyyy &lt;span style=&quot;white-space: pre&quot;&gt;	&lt;/span&gt;&lt;span style=&quot;white-space: pre&quot;&gt;	&lt;/span&gt;导出xxxx.yyyy数据表&lt;/div&gt;" style="rounded=0;whiteSpace=wrap;html=1;" vertex="1" parent="1">
          <mxGeometry x="200" y="680" width="290" height="290" as="geometry" />
        </mxCell>
        <mxCell id="rJQg1q4BybbTrZUk7zNA-6" value="&lt;div&gt;导出文件&lt;/div&gt;&lt;div&gt;metadata&lt;span style=&quot;white-space: pre&quot;&gt;	&lt;/span&gt;导出时间，完成时间，导出log位置，及时间戳&lt;/div&gt;" style="rounded=0;whiteSpace=wrap;html=1;align=left;" vertex="1" parent="1">
          <mxGeometry x="200" y="1000" width="320" height="40" as="geometry" />
        </mxCell>
        <mxCell id="rJQg1q4BybbTrZUk7zNA-7" value="&lt;div&gt;导出文件&lt;/div&gt;&lt;div&gt;创建库的数据&lt;/div&gt;" style="rounded=0;whiteSpace=wrap;html=1;align=left;" vertex="1" parent="1">
          <mxGeometry x="200" y="1040" width="320" height="40" as="geometry" />
        </mxCell>
        <mxCell id="rJQg1q4BybbTrZUk7zNA-8" value="&lt;div&gt;导出文件&lt;/div&gt;&lt;div&gt;创建表的数据&lt;/div&gt;" style="rounded=0;whiteSpace=wrap;html=1;align=left;" vertex="1" parent="1">
          <mxGeometry x="200" y="1080" width="320" height="40" as="geometry" />
        </mxCell>
        <mxCell id="rJQg1q4BybbTrZUk7zNA-9" value="&lt;div&gt;导出文件&lt;/div&gt;&lt;div&gt;每行数据&lt;/div&gt;" style="rounded=0;whiteSpace=wrap;html=1;align=left;" vertex="1" parent="1">
          <mxGeometry x="200" y="1120" width="320" height="40" as="geometry" />
        </mxCell>
        <mxCell id="rJQg1q4BybbTrZUk7zNA-10" value="&lt;div&gt;导出数据的一致性&lt;/div&gt;&lt;div&gt;&lt;br&gt;&lt;/div&gt;&lt;div&gt;flush&lt;span style=&quot;white-space: pre&quot;&gt;	&lt;/span&gt;全表锁&lt;/div&gt;&lt;div&gt;snapshot&lt;/div&gt;&lt;div&gt;lock&lt;span style=&quot;white-space: pre&quot;&gt;	&lt;/span&gt;&lt;span style=&quot;white-space: pre&quot;&gt;	&lt;/span&gt;部分锁&lt;/div&gt;&lt;div&gt;none&lt;/div&gt;&lt;div&gt;auto&lt;span style=&quot;white-space: pre&quot;&gt;	&lt;/span&gt;&lt;span style=&quot;white-space: pre&quot;&gt;	&lt;/span&gt;不通的数据库选择不同的命令来保证一致性&lt;/div&gt;" style="rounded=0;whiteSpace=wrap;html=1;align=left;" vertex="1" parent="1">
          <mxGeometry x="200" y="1200" width="320" height="120" as="geometry" />
        </mxCell>
        <mxCell id="rJQg1q4BybbTrZUk7zNA-11" value="Dumpling" style="rounded=0;whiteSpace=wrap;html=1;fillColor=#97D077;" vertex="1" parent="1">
          <mxGeometry x="840" y="80" width="120" height="60" as="geometry" />
        </mxCell>
        <mxCell id="rJQg1q4BybbTrZUk7zNA-13" value="&lt;br&gt;&lt;br&gt;&lt;br&gt;&lt;br&gt;&lt;br&gt;&lt;br&gt;&lt;br&gt;&lt;br&gt;&lt;br&gt;&lt;br&gt;&lt;br&gt;&lt;br&gt;Amazon S3 云盘" style="rounded=1;whiteSpace=wrap;html=1;" vertex="1" parent="1">
          <mxGeometry x="1040" y="40" width="200" height="250" as="geometry" />
        </mxCell>
        <mxCell id="rJQg1q4BybbTrZUk7zNA-14" value="TiDB" style="rounded=0;whiteSpace=wrap;html=1;fillColor=#FFFFCC;" vertex="1" parent="1">
          <mxGeometry x="610" y="80" width="120" height="60" as="geometry" />
        </mxCell>
        <mxCell id="rJQg1q4BybbTrZUk7zNA-15" value="MySQL" style="rounded=0;whiteSpace=wrap;html=1;fillColor=#FFD966;" vertex="1" parent="1">
          <mxGeometry x="610" y="180" width="120" height="60" as="geometry" />
        </mxCell>
        <mxCell id="rJQg1q4BybbTrZUk7zNA-16" value="数据迁移" style="html=1;shadow=0;dashed=0;align=center;verticalAlign=middle;shape=mxgraph.arrows2.arrow;dy=0.67;dx=20;notch=0;" vertex="1" parent="1">
          <mxGeometry x="767.5" y="130" width="265" height="60" as="geometry" />
        </mxCell>
        <mxCell id="rJQg1q4BybbTrZUk7zNA-17" value="" style="shape=document;whiteSpace=wrap;html=1;boundedLbl=1;fillColor=#7EA6E0;" vertex="1" parent="1">
          <mxGeometry x="1060" y="90" width="80" height="60" as="geometry" />
        </mxCell>
        <mxCell id="rJQg1q4BybbTrZUk7zNA-18" value="" style="shape=document;whiteSpace=wrap;html=1;boundedLbl=1;fillColor=#7EA6E0;" vertex="1" parent="1">
          <mxGeometry x="1050" y="100" width="80" height="60" as="geometry" />
        </mxCell>
        <mxCell id="rJQg1q4BybbTrZUk7zNA-19" value="SQL" style="shape=document;whiteSpace=wrap;html=1;boundedLbl=1;fillColor=#7EA6E0;" vertex="1" parent="1">
          <mxGeometry x="1040" y="110" width="80" height="60" as="geometry" />
        </mxCell>
        <mxCell id="rJQg1q4BybbTrZUk7zNA-20" value="" style="shape=document;whiteSpace=wrap;html=1;boundedLbl=1;fillColor=#7EA6E0;" vertex="1" parent="1">
          <mxGeometry x="1160" y="90" width="80" height="60" as="geometry" />
        </mxCell>
        <mxCell id="rJQg1q4BybbTrZUk7zNA-21" value="" style="shape=document;whiteSpace=wrap;html=1;boundedLbl=1;fillColor=#7EA6E0;" vertex="1" parent="1">
          <mxGeometry x="1150" y="100" width="80" height="60" as="geometry" />
        </mxCell>
        <mxCell id="rJQg1q4BybbTrZUk7zNA-22" value="CSV" style="shape=document;whiteSpace=wrap;html=1;boundedLbl=1;fillColor=#7EA6E0;" vertex="1" parent="1">
          <mxGeometry x="1140" y="110" width="80" height="60" as="geometry" />
        </mxCell>
        <mxCell id="rJQg1q4BybbTrZUk7zNA-25" value="" style="edgeStyle=orthogonalEdgeStyle;rounded=0;orthogonalLoop=1;jettySize=auto;html=1;" edge="1" parent="1" source="rJQg1q4BybbTrZUk7zNA-23" target="rJQg1q4BybbTrZUk7zNA-24">
          <mxGeometry relative="1" as="geometry" />
        </mxCell>
        <mxCell id="rJQg1q4BybbTrZUk7zNA-23" value="tidb-server&lt;br&gt;&lt;br&gt;main.go" style="rounded=0;whiteSpace=wrap;html=1;fillColor=#FFD966;" vertex="1" parent="1">
          <mxGeometry x="1440" y="40" width="120" height="60" as="geometry" />
        </mxCell>
        <mxCell id="rJQg1q4BybbTrZUk7zNA-27" value="" style="edgeStyle=orthogonalEdgeStyle;rounded=0;orthogonalLoop=1;jettySize=auto;html=1;" edge="1" parent="1" source="rJQg1q4BybbTrZUk7zNA-24" target="rJQg1q4BybbTrZUk7zNA-26">
          <mxGeometry relative="1" as="geometry" />
        </mxCell>
        <mxCell id="rJQg1q4BybbTrZUk7zNA-24" value="terror.MustNil(svr.Run())&lt;br&gt;启动server" style="rounded=0;whiteSpace=wrap;html=1;fillColor=#FFD966;" vertex="1" parent="1">
          <mxGeometry x="1640" y="40" width="150" height="60" as="geometry" />
        </mxCell>
        <mxCell id="rJQg1q4BybbTrZUk7zNA-29" value="" style="edgeStyle=orthogonalEdgeStyle;rounded=0;orthogonalLoop=1;jettySize=auto;html=1;" edge="1" parent="1" source="rJQg1q4BybbTrZUk7zNA-26" target="rJQg1q4BybbTrZUk7zNA-28">
          <mxGeometry relative="1" as="geometry" />
        </mxCell>
        <mxCell id="rJQg1q4BybbTrZUk7zNA-26" value="server/server.go&lt;br&gt;Run()&lt;br&gt;go s.startNetworkListener()" style="rounded=0;whiteSpace=wrap;html=1;fillColor=#FFD966;" vertex="1" parent="1">
          <mxGeometry x="1870" y="40" width="150" height="60" as="geometry" />
        </mxCell>
        <mxCell id="rJQg1q4BybbTrZUk7zNA-31" value="" style="edgeStyle=orthogonalEdgeStyle;rounded=0;orthogonalLoop=1;jettySize=auto;html=1;" edge="1" parent="1" source="rJQg1q4BybbTrZUk7zNA-28" target="rJQg1q4BybbTrZUk7zNA-30">
          <mxGeometry relative="1" as="geometry" />
        </mxCell>
        <mxCell id="rJQg1q4BybbTrZUk7zNA-28" value="server/server.go&lt;br&gt;s.startNetworkListener()&lt;br&gt;监听指定端口并接受命令参数&lt;br&gt;go s.onConn(clientConn)" style="rounded=0;whiteSpace=wrap;html=1;fillColor=#FFD966;" vertex="1" parent="1">
          <mxGeometry x="2100" y="40" width="180" height="60" as="geometry" />
        </mxCell>
        <mxCell id="rJQg1q4BybbTrZUk7zNA-33" value="" style="edgeStyle=orthogonalEdgeStyle;rounded=0;orthogonalLoop=1;jettySize=auto;html=1;" edge="1" parent="1" source="rJQg1q4BybbTrZUk7zNA-30" target="rJQg1q4BybbTrZUk7zNA-32">
          <mxGeometry relative="1" as="geometry" />
        </mxCell>
        <mxCell id="rJQg1q4BybbTrZUk7zNA-30" value="server/server.go&lt;br&gt;onConn()&lt;br&gt;获取连接的信息ctx&lt;br&gt;conn.Run(ctx)" style="rounded=0;whiteSpace=wrap;html=1;fillColor=#FFD966;" vertex="1" parent="1">
          <mxGeometry x="2100" y="180" width="180" height="60" as="geometry" />
        </mxCell>
        <mxCell id="rJQg1q4BybbTrZUk7zNA-35" value="" style="edgeStyle=orthogonalEdgeStyle;rounded=0;orthogonalLoop=1;jettySize=auto;html=1;" edge="1" parent="1" source="rJQg1q4BybbTrZUk7zNA-32" target="rJQg1q4BybbTrZUk7zNA-34">
          <mxGeometry relative="1" as="geometry" />
        </mxCell>
        <mxCell id="rJQg1q4BybbTrZUk7zNA-32" value="server/conn.go&lt;br&gt;Run(ctx)&lt;br&gt;从ctx中获取data交给dispatch处理&lt;br&gt;cc.dispatch(ctx,data)" style="rounded=0;whiteSpace=wrap;html=1;fillColor=#FFD966;" vertex="1" parent="1">
          <mxGeometry x="1840" y="180" width="200" height="60" as="geometry" />
        </mxCell>
        <mxCell id="rJQg1q4BybbTrZUk7zNA-37" value="" style="edgeStyle=orthogonalEdgeStyle;rounded=0;orthogonalLoop=1;jettySize=auto;html=1;" edge="1" parent="1" source="rJQg1q4BybbTrZUk7zNA-34" target="rJQg1q4BybbTrZUk7zNA-36">
          <mxGeometry relative="1" as="geometry" />
        </mxCell>
        <mxCell id="rJQg1q4BybbTrZUk7zNA-34" value="server/conn.go&lt;br&gt;dispatch(ctx,data)&lt;br&gt;从data中获取cmd种类并交给对应的函数处理&lt;br&gt;cc.handleQuery(ctx,dataStr)" style="rounded=0;whiteSpace=wrap;html=1;fillColor=#FFD966;" vertex="1" parent="1">
          <mxGeometry x="1560" y="180" width="250" height="60" as="geometry" />
        </mxCell>
        <mxCell id="rJQg1q4BybbTrZUk7zNA-39" value="" style="edgeStyle=orthogonalEdgeStyle;rounded=0;orthogonalLoop=1;jettySize=auto;html=1;" edge="1" parent="1" source="rJQg1q4BybbTrZUk7zNA-36" target="rJQg1q4BybbTrZUk7zNA-38">
          <mxGeometry relative="1" as="geometry" />
        </mxCell>
        <mxCell id="rJQg1q4BybbTrZUk7zNA-36" value="server/conn.go&lt;br&gt;handleQuery(ctx,sql)&lt;br&gt;将sql命令解析为ast Tree并处理&lt;br&gt;遍历所有的stmts切片并依次处理&lt;br&gt;cc.handleStmt()&lt;br&gt;" style="rounded=0;whiteSpace=wrap;html=1;fillColor=#FFD966;" vertex="1" parent="1">
          <mxGeometry x="1320" y="140" width="160" height="140" as="geometry" />
        </mxCell>
        <mxCell id="rJQg1q4BybbTrZUk7zNA-41" value="" style="edgeStyle=orthogonalEdgeStyle;rounded=0;orthogonalLoop=1;jettySize=auto;html=1;" edge="1" parent="1" source="rJQg1q4BybbTrZUk7zNA-38" target="rJQg1q4BybbTrZUk7zNA-40">
          <mxGeometry relative="1" as="geometry" />
        </mxCell>
        <mxCell id="rJQg1q4BybbTrZUk7zNA-38" value="server/conn.go&lt;br&gt;handleStmt(ctx,stmt,...)&lt;br&gt;获得ctx，并处理执行stmt&lt;br&gt;cc.ctx.ExecuteStmt(ctx,stmt)" style="rounded=0;whiteSpace=wrap;html=1;fillColor=#FFD966;" vertex="1" parent="1">
          <mxGeometry x="1320" y="360" width="160" height="70" as="geometry" />
        </mxCell>
        <mxCell id="rJQg1q4BybbTrZUk7zNA-43" value="" style="edgeStyle=orthogonalEdgeStyle;rounded=0;orthogonalLoop=1;jettySize=auto;html=1;" edge="1" parent="1" source="rJQg1q4BybbTrZUk7zNA-40" target="rJQg1q4BybbTrZUk7zNA-42">
          <mxGeometry relative="1" as="geometry" />
        </mxCell>
        <mxCell id="rJQg1q4BybbTrZUk7zNA-40" value="server/driver_tidb.go&lt;br&gt;ExecuteStmt(ctx,stmt)&lt;br&gt;进一步进行处理，并返回结果&lt;br&gt;tc.Session.ExecuteStmt(ctx,stmt)" style="rounded=0;whiteSpace=wrap;html=1;fillColor=#FFD966;" vertex="1" parent="1">
          <mxGeometry x="1560" y="360" width="180" height="70" as="geometry" />
        </mxCell>
        <mxCell id="rJQg1q4BybbTrZUk7zNA-45" value="" style="edgeStyle=orthogonalEdgeStyle;rounded=0;orthogonalLoop=1;jettySize=auto;html=1;" edge="1" parent="1" source="rJQg1q4BybbTrZUk7zNA-42" target="rJQg1q4BybbTrZUk7zNA-44">
          <mxGeometry relative="1" as="geometry" />
        </mxCell>
        <mxCell id="rJQg1q4BybbTrZUk7zNA-42" value="session/session.go&lt;br&gt;ExecuteStmt(ctx,stmtNode)&lt;br&gt;将抽象语法树转换为物理计划&lt;br&gt;然后执行物理计划,并返回结果&lt;br&gt;runStmt(ctx,s,stmt)" style="rounded=0;whiteSpace=wrap;html=1;fillColor=#FFD966;" vertex="1" parent="1">
          <mxGeometry x="1840" y="340" width="180" height="110" as="geometry" />
        </mxCell>
        <mxCell id="rJQg1q4BybbTrZUk7zNA-47" value="" style="edgeStyle=orthogonalEdgeStyle;rounded=0;orthogonalLoop=1;jettySize=auto;html=1;" edge="1" parent="1" source="rJQg1q4BybbTrZUk7zNA-44" target="rJQg1q4BybbTrZUk7zNA-46">
          <mxGeometry relative="1" as="geometry" />
        </mxCell>
        <mxCell id="rJQg1q4BybbTrZUk7zNA-44" value="session/session.go&lt;br&gt;runStmt()&lt;br&gt;执行sql执行器，并提交或回滚当前事务&lt;br&gt;rs,err = s.Exec(ctx)&lt;br&gt;返回结果值" style="rounded=0;whiteSpace=wrap;html=1;fillColor=#FFD966;" vertex="1" parent="1">
          <mxGeometry x="2100" y="340" width="180" height="110" as="geometry" />
        </mxCell>
        <mxCell id="rJQg1q4BybbTrZUk7zNA-49" value="" style="edgeStyle=orthogonalEdgeStyle;rounded=0;orthogonalLoop=1;jettySize=auto;html=1;" edge="1" parent="1" source="rJQg1q4BybbTrZUk7zNA-46" target="rJQg1q4BybbTrZUk7zNA-48">
          <mxGeometry relative="1" as="geometry" />
        </mxCell>
        <mxCell id="rJQg1q4BybbTrZUk7zNA-46" value="executor/adapter.go&lt;br&gt;Exec(ctx)&lt;br&gt;从执行计划中构建一个执行器&lt;br&gt;e,err = a.buildExecutor()" style="rounded=0;whiteSpace=wrap;html=1;fillColor=#FFD966;" vertex="1" parent="1">
          <mxGeometry x="2100" y="530" width="180" height="70" as="geometry" />
        </mxCell>
        <mxCell id="rJQg1q4BybbTrZUk7zNA-51" value="" style="edgeStyle=orthogonalEdgeStyle;rounded=0;orthogonalLoop=1;jettySize=auto;html=1;" edge="1" parent="1" source="rJQg1q4BybbTrZUk7zNA-48" target="rJQg1q4BybbTrZUk7zNA-50">
          <mxGeometry relative="1" as="geometry" />
        </mxCell>
        <mxCell id="rJQg1q4BybbTrZUk7zNA-48" value="executor/adapter.go&lt;br&gt;buildExecutor()&lt;br&gt;从计划中构建一个执行程序&lt;br&gt;e := b.build(a.Plan)" style="rounded=0;whiteSpace=wrap;html=1;fillColor=#FFD966;" vertex="1" parent="1">
          <mxGeometry x="1840" y="530" width="180" height="70" as="geometry" />
        </mxCell>
        <mxCell id="rJQg1q4BybbTrZUk7zNA-53" value="" style="edgeStyle=orthogonalEdgeStyle;rounded=0;orthogonalLoop=1;jettySize=auto;html=1;" edge="1" parent="1" source="rJQg1q4BybbTrZUk7zNA-50" target="rJQg1q4BybbTrZUk7zNA-52">
          <mxGeometry relative="1" as="geometry" />
        </mxCell>
        <mxCell id="rJQg1q4BybbTrZUk7zNA-50" value="executor/builder.go&lt;br&gt;build(Plan)&lt;br&gt;该函数会根据Plan的类型生成不同的执行程序&lt;br&gt;b.buildSimple(v)" style="rounded=0;whiteSpace=wrap;html=1;fillColor=#FFD966;" vertex="1" parent="1">
          <mxGeometry x="1580" y="530" width="180" height="70" as="geometry" />
        </mxCell>
        <mxCell id="rJQg1q4BybbTrZUk7zNA-55" value="" style="edgeStyle=orthogonalEdgeStyle;rounded=0;orthogonalLoop=1;jettySize=auto;html=1;" edge="1" parent="1" source="rJQg1q4BybbTrZUk7zNA-52" target="rJQg1q4BybbTrZUk7zNA-54">
          <mxGeometry relative="1" as="geometry" />
        </mxCell>
        <mxCell id="rJQg1q4BybbTrZUk7zNA-52" value="executor/builder.go&lt;br&gt;buildSimple(v *plannercore.Simple)&lt;br&gt;会根据不同的种类创建不通的执行构造函数&lt;br&gt;b.buildBRIE(s,v.schema)" style="rounded=0;whiteSpace=wrap;html=1;fillColor=#FFD966;" vertex="1" parent="1">
          <mxGeometry x="1320" y="525" width="200" height="80" as="geometry" />
        </mxCell>
        <mxCell id="rJQg1q4BybbTrZUk7zNA-54" value="executor/brie.go&lt;br&gt;buildBRIE(s,schema)&lt;br&gt;创建对应brie的执行器Exec{}" style="rounded=0;whiteSpace=wrap;html=1;fillColor=#FFD966;" vertex="1" parent="1">
          <mxGeometry x="1320" y="685" width="200" height="80" as="geometry" />
        </mxCell>
      </root>
    </mxGraphModel>
  </diagram>
</mxfile>
